<?xml version="1.0" encoding="UTF-8"?>
<svg version="1.1" xmlns="http://www.w3.org/2000/svg" width="100" height="100">
<path d="M0 0 C11.54950871 8.60143592 18.62378901 19.8261099 21 34 C21.9750039 49.18756075 18.82105513 62.42984197 8.875 74.1875 C0.00635483 83.5570321 -11.23419256 89.37305928 -24.1640625 90.203125 C-39.64483559 90.41279687 -52.31655542 86.2717117 -63.671875 75.5234375 C-73.8052857 64.53990845 -77.35246973 52.28233379 -77.21484375 37.6328125 C-76.40398246 23.92188517 -69.9932364 12.21976609 -60 3 C-42.25186933 -10.60519527 -19.101144 -12.05119495 0 0 Z " fill="#DAEFF3" transform="translate(78,9)"/>
<path d="M0 0 C1.36354722 0.71547344 2.71802882 1.44851208 4.0625 2.19921875 C7.1997967 3.48072469 10.05337029 3.50143222 13.4296875 3.640625 C20.11269542 3.96469327 25.05679145 4.88845199 29.921875 9.66796875 C33.64309408 13.96734333 34.70594042 16.49474304 34.3671875 22.140625 C33.85478516 23.08035156 33.85478516 23.08035156 33.33203125 24.0390625 C32.14724511 26.61968979 32.33272574 28.10628501 32.7421875 30.890625 C32.85304688 31.68984375 32.96390625 32.4890625 33.078125 33.3125 C33.17351562 33.91578125 33.26890625 34.5190625 33.3671875 35.140625 C32.22056641 35.03234375 32.22056641 35.03234375 31.05078125 34.921875 C24.86803682 34.38618595 18.6975611 34.01436126 12.4921875 33.890625 C11.29851563 33.86484375 10.10484375 33.8390625 8.875 33.8125 C5.48791551 34.12933196 3.40572622 35.04828159 0.37646484 36.47705078 C-3.87749511 37.88194302 -8.45855114 37.3559841 -12.8828125 37.203125 C-20.75684902 36.9580391 -27.92396443 37.44003272 -35.6328125 39.140625 C-35.12716922 36.10676535 -34.62926235 33.12642442 -33.8828125 30.140625 C-33.56360345 26.31011639 -34.90606345 24.52505313 -36.6328125 21.140625 C-37.43769459 16.40076383 -36.60121724 13.54551544 -34.1953125 9.515625 C-30.82401874 4.80064136 -26.84738107 2.47675172 -21.6328125 0.140625 C-16.20042811 -2.5755672 -5.74502386 -1.87523034 0 0 Z " fill="#377382" transform="translate(52.6328125,29.859375)"/>
<path d="M0 0 C3.28609535 2.54808339 5.78343514 5.54343278 7.65234375 9.28125 C8.00184551 14.64027696 8.00184551 14.64027696 6.6171875 17.1796875 C5.43240136 19.76031479 5.61788199 21.24691001 6.02734375 24.03125 C6.13820312 24.83046875 6.2490625 25.6296875 6.36328125 26.453125 C6.45867187 27.05640625 6.5540625 27.6596875 6.65234375 28.28125 C5.89953125 28.2090625 5.14671875 28.136875 4.37109375 28.0625 C-4.56054998 27.28206511 -13.39290502 27.17779331 -22.34765625 27.28125 C-22.34765625 26.62125 -22.34765625 25.96125 -22.34765625 25.28125 C-23.09015625 25.03375 -23.83265625 24.78625 -24.59765625 24.53125 C-28.47740819 22.76772639 -30.56451311 20.66107362 -32.66015625 16.96875 C-33.60868014 13.2608839 -33.36914514 10.98414723 -32.34765625 7.28125 C-29.7298477 3.01193807 -26.3469425 -0.56761489 -21.52734375 -2.28125 C-14.21644656 -3.74867023 -6.54476097 -3.87427711 0 0 Z " fill="#69B8CA" transform="translate(79.34765625,36.71875)"/>
<path d="M0 0 C1.98 0.495 1.98 0.495 4 1 C3.67 2.65 3.34 4.3 3 6 C1.68 5.67 0.36 5.34 -1 5 C-0.67 3.35 -0.34 1.7 0 0 Z " fill="#AAC1BD" transform="translate(39,45)"/>
<path d="M0 0 C1.98 0.495 1.98 0.495 4 1 C3.67 2.65 3.34 4.3 3 6 C1.68 5.67 0.36 5.34 -1 5 C-0.67 3.35 -0.34 1.7 0 0 Z " fill="#AAC1BD" transform="translate(30,45)"/>
<path d="M0 0 C1.98 0.495 1.98 0.495 4 1 C3.67 2.32 3.34 3.64 3 5 C1.68 4.67 0.36 4.34 -1 4 C-0.67 2.68 -0.34 1.36 0 0 Z " fill="#ACC7C5" transform="translate(73,46)"/>
<path d="M0 0 C1.98 0.495 1.98 0.495 4 1 C3.67 2.32 3.34 3.64 3 5 C1.68 4.67 0.36 4.34 -1 4 C-0.67 2.68 -0.34 1.36 0 0 Z " fill="#ABC7C5" transform="translate(58,46)"/>
</svg>
